<svg width="26" height="26" viewBox="0 0 26 26" fill="none" xmlns="http://www.w3.org/2000/svg">
<path d="M26 18.447C26 23.179 23.179 26 18.447 26H16.9C16.185 26 15.6 25.415 15.6 24.7V17.199C15.6 16.848 15.886 16.549 16.237 16.549L18.525 16.51C18.707 16.497 18.863 16.367 18.902 16.185L19.357 13.702C19.396 13.468 19.214 13.247 18.967 13.247L16.198 13.286C15.834 13.286 15.548 13 15.535 12.649L15.483 9.464C15.483 9.256 15.652 9.07401 15.873 9.07401L18.993 9.022C19.214 9.022 19.383 8.85301 19.383 8.63201L19.331 5.51199C19.331 5.29099 19.162 5.122 18.941 5.122L15.431 5.17401C13.273 5.21301 11.557 6.981 11.596 9.139L11.661 12.714C11.674 13.078 11.388 13.364 11.024 13.377L9.464 13.403C9.243 13.403 9.07401 13.572 9.07401 13.793L9.11301 16.263C9.11301 16.484 9.282 16.653 9.503 16.653L11.063 16.627C11.427 16.627 11.713 16.913 11.726 17.264L11.843 24.674C11.856 25.402 11.271 26 10.543 26H7.553C2.821 26 0 23.179 0 18.434V7.553C0 2.821 2.821 0 7.553 0H18.447C23.179 0 26 2.821 26 7.553V18.447Z" fill="white"/>
</svg>
