<svg width="30" height="30" viewBox="0 0 30 30" fill="none" xmlns="http://www.w3.org/2000/svg">
<path d="M11.1 28.0543H18.9C25.4 28.0543 28 25.4489 28 18.9353V11.119C28 4.60543 25.4 2 18.9 2H11.1C4.6 2 2 4.60543 2 11.119V18.9353C2 25.4489 4.6 28.0543 11.1 28.0543Z" stroke="white" stroke-width="3" stroke-linecap="round" stroke-linejoin="round"/>
<path d="M14.9999 19.5867C17.5128 19.5867 19.5499 17.5453 19.5499 15.0272C19.5499 12.509 17.5128 10.4677 14.9999 10.4677C12.487 10.4677 10.4499 12.509 10.4499 15.0272C10.4499 17.5453 12.487 19.5867 14.9999 19.5867Z" stroke="white" stroke-width="3" stroke-linecap="round" stroke-linejoin="round"/>
<path d="M22.3271 8.51367H22.3427" stroke="white" stroke-width="3" stroke-linecap="round" stroke-linejoin="round"/>
</svg>
