<svg width="26" height="26" viewBox="0 0 26 26" fill="none" xmlns="http://www.w3.org/2000/svg">
<path d="M8.53624 20.2771C5.21952 19.563 3.06222 18.0436 2.1226 15.7618L4.15546 14.6914C4.77216 16.1918 6.38678 17.228 8.95448 17.7861L8.53624 20.2771ZM9.58911 25.8628C9.246 25.8628 8.90178 25.8488 8.55644 25.821C5.11424 25.6687 2.07087 23.8588 0.0149597 21.0816L0 21.0609L1.79404 19.5389C3.48165 21.766 5.9431 23.1955 8.70139 23.2903L8.71562 23.2906C8.98556 23.3151 9.30007 23.3291 9.61744 23.3291C12.9048 23.3291 15.8826 21.8296 18.0453 19.4023L18.0446 19.4032L18.0547 19.3918C20.6625 16.5297 22.281 12.5283 22.281 8.09932C22.281 7.52726 22.254 6.96228 22.2014 6.40603L22.2067 6.47516L22.1821 6.20494L22.8885 3.81164H20.6762L20.3656 3.52119C19.7162 2.90948 18.8732 2.53822 17.9536 2.53822C17.889 2.53822 17.8248 2.54008 17.7609 2.5437L17.7699 2.54329H17.7161C17.6907 2.54241 17.6609 2.5419 17.6309 2.5419C16.3117 2.5419 15.1971 3.53309 14.8375 4.89302L14.8322 4.91636C14.5557 5.71441 14.3822 6.63768 14.3526 7.60232L14.3522 7.61662V8.84559L13.2658 8.88494C10.4559 8.98387 7.39479 7.65849 3.94801 4.84023C3.97492 5.14462 4.01866 5.49215 4.08482 5.88282C4.30682 7.24287 4.70256 8.45665 5.25011 9.56111L5.22291 9.50135L3.29881 10.8052C2.59139 9.39929 2.07205 7.76023 1.82517 6.01822L1.81541 5.93479C1.50037 3.7558 1.69544 2.29596 2.39623 1.5933L3.10596 0.883039L3.84377 1.5565C7.03942 4.47371 9.78655 6.0363 12.2096 6.31026C12.3211 5.43613 12.5103 4.64932 12.7731 3.90471L12.7511 3.97523C13.4551 1.64886 15.3714 0.00618779 17.6269 0.00618779C17.6488 0.00618779 17.6707 0.00633932 17.6925 0.00664239H17.6892C17.7684 0.00239932 17.8613 0 17.9546 0C19.2707 0 20.4882 0.477901 21.4787 1.28866L21.4611 1.27497H26L24.4605 6.49667C24.4982 6.96599 24.5197 7.5118 24.5197 8.06328C24.5197 13.2125 22.645 17.8664 19.6255 21.1994L19.6222 21.203C17.0599 24.0829 13.5289 25.8629 9.6303 25.8629C9.61583 25.8629 9.60134 25.8629 9.5869 25.8628H9.58913L9.58911 25.8628ZM4.71723 16.2476C2.70353 14.5487 1.30509 12.026 0.911669 9.12862L0.904859 9.0676L3.12385 8.70105C3.429 10.9676 4.49844 12.9009 6.01977 14.1887L6.03913 14.2043L4.71723 16.2476Z" fill="white"/>
</svg>
